<svg width="270" height="81" viewBox="0 0 270 81" fill="none" xmlns="http://www.w3.org/2000/svg">
<path d="M189 0H269.463V80.4631H189V0Z" fill="#004098"/>
<path d="M269.463 0V80.4631H189V0H269.463ZM192.095 77.3684H266.368V3.09473H192.095V77.3684Z" fill="#004098"/>
<path d="M215.836 19.3135H219.33V47.7193C219.363 50.1836 219.667 52.614 220.241 55.0107L221.456 59.3146L218.064 60.226L216.95 55.9221C216.241 53.2216 215.87 50.4874 215.836 47.7193V19.3135ZM238.52 27.1618V45.3902H243.28V48.8333H238.52V54.555C238.149 58.0319 236.258 59.9222 232.849 60.226H232.748C229.271 59.8885 227.381 57.9981 227.077 54.555V51.0612C227.381 47.5506 229.271 45.6602 232.748 45.3902H235.077V27.1618H225.862V23.668H235.077V19.3135H238.52V23.668H242.773V27.1618H238.52ZM235.077 54.555V48.8333H232.748C231.398 48.9683 230.655 49.711 230.52 51.0612V54.555C230.655 55.9052 231.398 56.6479 232.748 56.7829H232.849C234.166 56.6479 234.908 55.9052 235.077 54.555Z" fill="white"/>
<path d="M94.5117 0H174.975V80.4631H94.5117V0Z" fill="#004098"/>
<path d="M174.975 0V80.4631H94.5117V0H174.975ZM97.6065 77.3684H171.88V3.09473H97.6065V77.3684Z" fill="#004098"/>
<path d="M135.465 37.3397V27.2634H122.098V23.7697H135.465V19.2632H138.908V23.7697H148.073V27.2634H138.908V37.4916C141.643 38.268 143.111 40.1077 143.313 43.0107V50.7072C143.077 53.779 141.913 56.412 139.82 58.6061L136.427 61.5935L134.149 59.0618L137.49 56.0238C138.875 54.5385 139.668 52.7663 139.87 50.7072V43.0107C139.837 42.2681 139.516 41.6605 138.908 41.1879V44.4791C138.537 47.956 136.647 49.8633 133.237 50.2008H132.579C129.102 49.8633 127.212 47.956 126.908 44.4791V43.0107C127.212 39.5001 129.102 37.6097 132.579 37.3397H135.465ZM135.465 44.4791V40.7828H132.579C131.229 40.9178 130.486 41.6605 130.351 43.0107V44.4791C130.486 45.8294 131.229 46.572 132.579 46.707H133.237C134.554 46.572 135.296 45.8294 135.465 44.4791ZM140.984 21.8456V18.0986H144.782V21.8456H140.984ZM147.111 21.8456V18.0986H150.909V21.8456H147.111Z" fill="white"/>
<path d="M0 0H80.4631V80.4631H0V0Z" fill="#004098"/>
<path d="M80.4631 0V80.4631H0V0H80.4631ZM3.09473 77.3684H77.3684V3.09473H3.09473V77.3684Z" fill="#004098"/>
<path d="M46.3451 45.0269C49.4507 44.9931 51.3579 46.4278 52.0668 49.3308V51.9132H48.573V49.3308C47.9654 48.6894 47.2227 48.4025 46.3451 48.47H44.3197V54.1917C43.9822 57.6686 42.0918 59.5589 38.6487 59.8628H37.079C33.5684 59.5252 31.678 57.6348 31.408 54.1917V50.6979C31.7118 47.221 33.6021 45.3307 37.079 45.0269H40.8766V35.8114H30.6484V32.3683H40.8766V26.7985H30.6484V23.3048H40.8766V18.9502H44.3197V23.3048H51.3579V26.7985H44.3197V32.3683H51.3579V35.8114H44.3197V45.0269H46.3451ZM40.8766 54.1917V48.47H37.079C35.695 48.605 34.9524 49.3477 34.8511 50.6979V54.1917C34.9524 55.542 35.695 56.2846 37.079 56.4196H38.6487C39.9989 56.2846 40.7416 55.542 40.8766 54.1917Z" fill="white"/>
</svg>
