<svg width="364" height="81" viewBox="0 0 364 81" fill="none" xmlns="http://www.w3.org/2000/svg">
<path d="M189 0H269.463V80.4631H189V0Z" fill="#004098"/>
<path d="M269.463 0V80.4631H189V0H269.463ZM192.095 77.3684H266.368V3.09473H192.095V77.3684Z" fill="#004098"/>
<path d="M221.506 36.9348L217.608 48.7832L214.316 47.7199L218.215 35.8714C218.924 33.5423 219.312 31.1456 219.38 28.6814V27.2636H215.481V23.7698H219.38V19.1621H222.823V23.7698H229.152V27.2636H222.823V28.6814C222.755 31.4831 222.317 34.2343 221.506 36.9348ZM234.57 30.4029V26.9598H242.621V30.4029H234.57ZM236.545 46.6059C239.954 46.8422 241.861 48.6482 242.267 52.0238V55.6695H238.773V52.0238C238.57 50.8086 237.828 50.1672 236.545 50.0997H235.785V54.6062C235.448 58.083 233.541 59.9734 230.064 60.2772H228.848C225.338 59.9396 223.447 58.0493 223.177 54.6062V52.3276C223.481 48.8507 225.372 46.9435 228.848 46.6059H232.292V36.9854H235.785V46.6059H236.545ZM232.292 54.6062V50.0997H228.848C227.464 50.2347 226.722 50.9774 226.621 52.3276V54.6062C226.722 55.9564 227.464 56.699 228.848 56.8341H230.064C231.414 56.699 232.157 55.9564 232.292 54.6062Z" fill="white"/>
<path d="M283.512 0H363.975V80.4631H283.512V0Z" fill="#004098"/>
<path d="M363.975 0V80.4631H283.512V0H363.975ZM286.606 77.3684H360.88V3.09473H286.606V77.3684Z" fill="#004098"/>
<path d="M329.945 19.9216C333.118 20.428 334.772 22.3183 334.907 25.5927V30.9093H331.413V25.5927C331.413 24.4787 330.924 23.7361 329.945 23.3648H326.755V19.9216H329.945ZM332.882 49.8465C332.814 51.3318 332.375 52.7327 331.565 54.0492C330.823 55.3657 329.793 56.4121 328.477 57.1885L320.932 61.2393L319.312 58.1506L326.806 54.1504C328.325 53.104 329.185 51.6694 329.388 49.8465V43.4666C329.253 42.1163 328.51 41.3737 327.16 41.2387H320.679C317.202 40.9011 315.312 39.0108 315.008 35.5676V19.1621H318.451V35.5676C318.586 36.9179 319.329 37.6605 320.679 37.7955H327.16C330.637 38.1331 332.544 40.0235 332.882 43.4666V49.8465Z" fill="white"/>
<path d="M94.5117 0H174.975V80.4631H94.5117V0Z" fill="#004098"/>
<path d="M174.975 0V80.4631H94.5117V0H174.975ZM97.6065 77.3684H171.88V3.09473H97.6065V77.3684Z" fill="#004098"/>
<path d="M127.162 19.3142H130.605V28.2259H139.466V20.8333H142.909V28.2259H147.77V31.7197H142.909V39.6186C142.876 41.0364 142.454 42.3191 141.643 43.4668C140.766 44.6145 139.601 45.2221 138.15 45.2897H135.01V41.8465H138.15C139.027 41.4414 139.466 40.6988 139.466 39.6186V31.7197H130.605V54.9102C130.706 56.2267 131.449 56.9524 132.833 57.0875H144.023V60.5812H132.833C129.322 60.2099 127.432 58.3196 127.162 54.9102V31.7197H122.402V28.2259H127.162V19.3142ZM141.643 20.1244V16.3774H145.39V20.1244H141.643ZM147.871 20.1244V16.3774H151.618V20.1244H147.871Z" fill="white"/>
<path d="M0 0.000488281H80.4631V80.4636H0V0.000488281Z" fill="#004098"/>
<path d="M80.4631 0.000488281V80.4636H0V0.000488281H80.4631ZM3.09473 77.3689H77.3684V3.09522H3.09473V77.3689Z" fill="#004098"/>
<path d="M33.5846 36.572L29.6858 48.4204L26.3945 47.3571L30.2934 35.5087C31.0023 33.1795 31.3905 30.7828 31.458 28.3186V26.9008H27.5591V23.407H31.458V18.7993H34.9011V23.407H41.2304V26.9008H34.9011V28.3186C34.8336 31.1203 34.3948 33.8715 33.5846 36.572ZM46.6483 30.0401V26.597H54.6991V30.0401H46.6483ZM48.623 46.2431C52.0324 46.4794 53.9396 48.2854 54.3447 51.661V55.3067H50.8509V51.661C50.6484 50.4458 49.9057 49.8044 48.623 49.7369H47.8635V54.2434C47.5259 57.7203 45.6187 59.6106 42.1418 59.9144H40.9266C37.4159 59.5768 35.5256 57.6865 35.2555 54.2434V51.9648C35.5593 48.4879 37.4497 46.5807 40.9266 46.2431H44.3697V36.6226H47.8635V46.2431H48.623ZM44.3697 54.2434V49.7369H40.9266C39.5426 49.8719 38.7999 50.6146 38.6987 51.9648V54.2434C38.7999 55.5936 39.5426 56.3363 40.9266 56.4713H42.1418C43.4921 56.3363 44.2347 55.5936 44.3697 54.2434Z" fill="white"/>
</svg>
