<svg width="614" height="256" viewBox="0 0 614 256" fill="none" xmlns="http://www.w3.org/2000/svg">
<path d="M0 94.125V29.125H6V94.125C6 106.275 15.8497 116.125 28 116.125H398V122.125H28C12.536 122.125 0 109.589 0 94.125Z" fill="#004098"/>
<path d="M435.193 121.875L388.059 166.308L383.942 161.942L432.809 115.875H611V121.875H435.193Z" fill="#004098"/>
<path d="M455.115 46.0306L458.807 40.9229L463.668 44.4921L457.699 52.7383C456.674 54.3383 455.217 55.2614 453.33 55.5075C452.92 55.4665 452.509 55.405 452.099 55.3229C449.925 54.2562 448.92 52.4511 449.084 49.9075V21.6614C449.125 20.8408 448.94 20.0819 448.53 19.3844C448.079 19.5485 447.73 19.7742 447.484 20.0614C446.622 20.7178 445.966 21.5178 445.515 22.4614L438.991 33.4767V55.3844H432.961V43.6921L430.991 47.0767L425.822 44.0614L432.961 31.8152V15.3844H427.607V9.4152H432.961V4.73828H438.991V9.4152H442.868V15.3844H438.991V21.5998L440.284 19.3844C442.212 15.9383 445.063 13.887 448.838 13.2306C450.971 13.3537 452.591 14.3793 453.699 16.3075C454.602 17.9485 455.074 19.7332 455.115 21.6614V46.0306Z" fill="#004098"/>
<path d="M366.191 37.4152C365.125 42.8716 363.73 47.8357 362.007 52.3075C364.304 50.3793 365.863 47.9588 366.684 45.046C367.545 42.0511 367.976 37.3947 367.976 31.0767H374.068C374.068 38.9126 373.453 44.8408 372.222 48.8614C371.032 52.8408 368.899 55.9998 365.822 58.3383L361.884 52.5537C361.227 54.2357 360.55 55.8357 359.853 57.3537L354.868 53.2921C357.289 47.7537 359.299 41.5793 360.899 34.7691L366.191 37.4152ZM382.745 15.7537L388.222 12.6767C391.012 17.7229 393.474 22.728 395.607 27.6921L390.315 31.3229C389.412 29.3537 388.776 27.8973 388.407 26.9537C380.325 28.3485 372.448 29.2101 364.776 29.5383L364.715 25.9691L362.253 30.8306C359.791 27.7537 357.022 24.6152 353.945 21.4152L357.515 16.0614C360.304 18.8101 362.684 21.7024 364.653 24.7383L364.591 22.7691C367.053 22.687 368.715 22.6049 369.576 22.5229C370.602 19.2408 371.566 15.7947 372.468 12.1844H365.453L363.176 16.0614C360.756 13.1075 358.274 10.2973 355.73 7.63059L359.176 2.27675C361.515 4.53316 363.422 6.83059 364.899 9.16905V5.41521H376.53V0.738281H382.991V5.41521H394.868V12.1844H378.93C378.191 15.2614 377.33 18.5229 376.345 21.9691C379.545 21.6408 382.52 21.2511 385.268 20.7998C384.817 19.6511 383.976 17.9691 382.745 15.7537ZM375.484 56.7383V30.8921H381.515V56.7383H375.484ZM383.73 30.2767H389.761V49.046C389.761 49.9075 389.781 50.4408 389.822 50.646C389.863 50.8101 390.027 50.8921 390.315 50.8921C390.643 50.8921 390.848 50.4614 390.93 49.5998C391.053 48.6973 391.176 45.5998 391.299 40.3075L396.099 41.1075C396.099 42.9947 396.079 44.4716 396.038 45.5383C395.997 46.5639 395.935 47.7126 395.853 48.9844C395.812 50.2152 395.771 51.1383 395.73 51.7537C395.689 52.328 395.566 52.9844 395.361 53.7229C395.197 54.5024 395.053 55.0152 394.93 55.2614C394.807 55.5485 394.581 55.8767 394.253 56.246C393.925 56.6562 393.617 56.8819 393.33 56.9229C393.043 57.005 392.632 57.1075 392.099 57.2306C391.607 57.3537 391.156 57.4152 390.745 57.4152C390.335 57.4152 389.761 57.4152 389.022 57.4152C386.684 57.4152 385.207 57.1485 384.591 56.6152C384.017 56.0819 383.73 54.7075 383.73 52.4921V30.2767Z" fill="#004098"/>
<path d="M312.409 46.277C313.762 43.5283 314.521 40.6565 314.685 37.6617V15.9386C314.562 14.4617 313.762 13.6617 312.285 13.5386H309.578V28.1232C309.455 32.0206 308.86 35.8565 307.793 39.6309L304.962 48.3078C304.388 49.9488 303.568 51.5078 302.501 52.9847C301.311 54.5437 299.732 55.4052 297.762 55.5694C295.588 55.3642 294.091 54.2565 293.27 52.2463C292.532 50.6053 292.183 48.9027 292.224 47.1386V15.9386C292.675 10.7694 295.465 7.9591 300.593 7.50781H312.285C317.414 8.00012 320.203 10.8104 320.655 15.9386V37.6617C320.45 41.7642 319.444 45.6206 317.639 49.2309L314.07 55.6309L308.839 52.6155L312.409 46.277ZM303.547 28.1232V13.5386H300.593C299.116 13.6617 298.316 14.4617 298.193 15.9386V47.1386C298.193 47.5899 298.234 48.0001 298.316 48.3694C298.685 47.754 298.993 47.1181 299.239 46.4617L302.009 37.7847C302.911 34.6258 303.424 31.4053 303.547 28.1232Z" fill="#004098"/>
<path d="M224.1 55.8158V58.0312H218.377V39.262H233.27V41.5389C234.459 38.2569 235.362 34.7081 235.977 30.8928C235.608 31.262 235.239 31.4876 234.87 31.5697L233.023 24.4928C236.511 22.8107 238.952 20.6979 240.346 18.1543C241.7 15.6107 242.377 12.0825 242.377 7.56968V2.1543H248.47V7.56968C248.47 10.2774 248.716 12.6569 249.208 14.7081C250.644 11.4671 251.813 7.77481 252.716 3.63122L257.946 5.47738C257.126 9.74404 255.875 13.8056 254.193 17.662L249.393 15.262C249.721 16.2876 250.131 17.2107 250.623 18.0312C252.059 20.5748 254.603 22.7287 258.254 24.4928L256.839 30.5851L258.193 31.1389C257.372 35.4056 256.08 39.4671 254.316 43.3235L249.331 40.7389C249.659 41.9287 250.111 43.0158 250.685 44.0005C252.162 46.544 254.767 48.6979 258.5 50.462L256.654 57.5389C251.608 55.4466 247.936 51.5902 245.639 45.9697C243.341 51.6312 239.752 55.4876 234.87 57.5389L233.27 51.3235V55.8158H224.1ZM224.1 49.9081H228.039V45.1697H224.1V49.9081ZM242.377 26.9543H248.47V33.5389C248.47 36.2876 248.736 38.6671 249.27 40.6774C250.705 37.4774 251.854 33.8261 252.716 29.7235C249.639 27.4671 247.28 24.2671 245.639 20.1235C243.752 24.7184 241.187 28.144 237.946 30.4005L241.516 31.7543C240.777 35.9799 239.649 40.103 238.131 44.1235L233.27 41.7235V50.3389C236.634 48.6979 238.993 46.6261 240.346 44.1235C241.7 41.5799 242.377 38.0517 242.377 33.5389V26.9543ZM218.377 9.90814V3.69276H233.085V9.90814H218.377ZM217.27 19.1389V12.4928H234.07V15.3851C235.259 11.9799 236.203 8.34917 236.9 4.49276L242.131 6.09276C241.434 10.3594 240.346 14.503 238.87 18.5235L234.07 16.1851V19.1389H217.27ZM218.746 27.8774V21.8466H233.023V24.4928V27.8774H218.746ZM218.746 36.5543V30.5851H233.023V36.5543H218.746Z" fill="#004098"/>
<path d="M177.945 21.6618V49.231H181.022V21.6618H177.945ZM165.145 27.0156H172.161V21.6618H165.145V27.0156ZM165.145 38.0926H172.161V32.6156H165.145V38.0926ZM165.145 49.231H172.161V43.631H165.145V49.231ZM156.284 49.231H159.361V21.6618H156.284V49.231ZM149.453 9.72333V2.9541H187.853V9.72333H171.669C171.463 11.2413 171.176 13.1695 170.807 15.5079H187.176V57.4156H181.022V55.2003H156.284V57.4156H150.13V15.5079H163.976C164.427 13.0874 164.735 11.1592 164.899 9.72333H149.453Z" fill="#004098"/>
</svg>
