<svg width="750" height="278" viewBox="0 0 750 278" fill="none" xmlns="http://www.w3.org/2000/svg">
<rect width="750" height="278" fill="#004098"/>
<path d="M655.652 179.31L667.042 207.011L662.796 208.695L652.821 184.634L639.881 208.898L635.77 206.741L655.18 170.413C656.438 167.717 657.157 164.932 657.337 162.056C657.022 160.393 656.034 159.517 654.371 159.427H636.646V154.844H654.371C658.865 155.159 661.403 157.563 661.987 162.056C661.763 165.74 660.864 169.245 659.292 172.57L655.652 179.31Z" fill="white"/>
<path d="M575.111 208.358C570.438 207.909 567.922 205.393 567.562 200.81V153.968H572.146V168.122H581.177C583.424 167.852 585.064 166.729 586.097 164.752L588.389 158.753L592.702 160.371L590.478 166.302C588.591 170.256 585.49 172.413 581.177 172.772H572.146V200.81C572.325 202.562 573.314 203.551 575.111 203.775H594.522V208.358H575.111ZM589.332 156.26V151.205H594.32V156.26H589.332ZM597.487 156.26V151.205H602.475V156.26H597.487Z" fill="white"/>
<path d="M492.818 183.96V178.838H532.448V183.96H492.818Z" fill="white"/>
<path d="M455.008 154.036V160.573H462.084V165.156H455.008V173.379C454.918 177.108 454.334 180.793 453.255 184.432L444.965 209.1L440.584 207.55L448.874 182.949C449.818 179.849 450.335 176.659 450.425 173.379V165.156H436.338V177.423H431.688V165.156H425.555V160.573H431.688V154.036H436.338V160.573H450.425V154.036H455.008Z" fill="white"/>
<path d="M380.668 179.31L392.058 207.011L387.812 208.695L377.837 184.634L364.896 208.898L360.785 206.741L380.196 170.413C381.454 167.717 382.173 164.932 382.353 162.056C382.038 160.393 381.05 159.517 379.387 159.427H361.661V154.844H379.387C383.88 155.159 386.419 157.563 387.003 162.056C386.778 165.74 385.88 169.245 384.307 172.57L380.668 179.31Z" fill="white"/>
<path d="M304.509 176.749L293.254 188.207L289.951 184.904L308.553 166.033C310.305 164.011 311.316 161.674 311.586 159.023V153.968H316.236V159.023C315.922 162.932 314.462 166.37 311.856 169.335L307.744 173.446L309.025 174.862C311.137 177.647 312.215 180.86 312.26 184.5V209.639H307.677V184.5C307.677 182.118 307.003 179.961 305.655 178.029L304.509 176.749Z" fill="white"/>
<path d="M228.146 183.893L223.832 210.178L219.316 209.437L223.63 183.152C224.124 179.782 224.394 176.434 224.439 173.109V154.103H229.022V173.109C228.977 176.704 228.685 180.298 228.146 183.893ZM247.017 164.819L253.218 179.04C254.566 182.545 255.352 186.252 255.577 190.161V206.674H250.926V190.161C250.746 186.971 250.117 183.893 249.039 180.927L242.771 166.639L247.017 164.819ZM248.567 159.562V154.575H253.555V159.562H248.567ZM256.857 159.562V154.575H261.845V159.562H256.857Z" fill="white"/>
<path d="M180.564 180.254L186.63 186.859L183.192 189.959L177.127 183.354C175.105 181.467 172.746 180.433 170.05 180.254H161.895V209.841H157.244V154.103H161.895V175.67H170.05C174.094 175.895 177.598 177.423 180.564 180.254ZM175.442 163.404V158.417H180.429V163.404H175.442ZM183.597 163.404V158.417H188.584V163.404H183.597Z" fill="white"/>
<path d="M111.615 162.191C111.391 160.483 110.402 159.585 108.65 159.495H85.8691V154.912H108.65C113.233 155.271 115.749 157.698 116.198 162.191C115.884 166.145 114.423 169.605 111.817 172.57L101.64 182.815V190.161C101.461 193.98 100.674 197.642 99.2814 201.147L95.3723 209.976L91.1262 208.156L95.1027 199.26C96.226 196.339 96.8775 193.306 97.0572 190.161V165.359H101.64V176.277L108.582 169.335C110.335 167.313 111.346 164.932 111.615 162.191Z" fill="white"/>
<path d="M602.946 82.9275V55.9009H607.529V82.9275C607.44 86.567 607.058 90.1841 606.384 93.7786L602.677 111.909L598.094 111.033L601.868 92.8351C602.452 89.555 602.812 86.2525 602.946 82.9275ZM626.468 103.417L628.423 80.636L632.939 80.973L631.119 103.754C630.894 105.731 630.085 107.46 628.693 108.943C627.255 110.336 625.547 111.078 623.57 111.167C619.167 110.583 616.83 108.045 616.561 103.551V55.9009H621.144V103.551C621.189 105.214 621.998 106.202 623.57 106.517C625.233 106.202 626.199 105.169 626.468 103.417Z" fill="white"/>
<path d="M541.278 112.381L537.908 80.9056L533.392 82.2536L531.977 78.0749L537.368 76.2551L536.627 69.3131L541.143 68.7739L541.817 74.9072L552.331 71.6046C553.993 71.0205 555.543 71.2452 556.981 72.2786C558.329 73.3121 559.026 74.705 559.071 76.4573V81.5796C558.846 84.7248 557.678 87.4881 555.566 89.8695L552.196 93.1721L548.893 90.0043L552.398 86.7018C553.611 85.2191 554.308 83.5117 554.488 81.5796V76.4573C554.488 76.1877 554.42 75.9855 554.285 75.8507C554.106 75.7159 553.926 75.6935 553.746 75.7833L542.356 79.4902L545.726 111.841L541.278 112.381Z" fill="white"/>
<path d="M462.086 63.2473V58.5968H474.824V63.2473H462.086ZM462.086 81.7144V77.1313H474.824V81.7144H462.086ZM489.18 75.7833V55.9683H493.763V75.7833C493.583 79.6475 492.617 83.3094 490.865 86.7692L476.374 111.707L472.33 109.348L486.888 84.4777C488.236 81.6919 489 78.7938 489.18 75.7833Z" fill="white"/>
<path d="M420.366 75.3789V56.0356H424.949V75.3789C424.724 79.3329 423.579 82.9949 421.512 86.3648L403.247 111.774L399.54 109.078L417.737 83.6689C419.31 81.1078 420.186 78.3444 420.366 75.3789ZM402.91 69.4479C401.202 67.7405 399.18 66.8193 396.844 66.6846H391.924V62.0341H396.844C398.686 62.079 400.483 62.5059 402.236 63.3146C403.898 64.0785 405.336 65.1569 406.549 66.5498L409.447 70.1219L405.808 73.02L402.91 69.4479Z" fill="white"/>
<path d="M325.537 68.7065V64.1234H345.352V56.1704H350.003V64.1234H355.597V68.7065H350.003V85.1516C349.823 88.9708 348.857 92.6103 347.105 96.0701L338.343 111.504L334.299 109.145L343.061 93.846C344.409 91.0602 345.172 88.1621 345.352 85.1516V68.7065H325.537Z" fill="white"/>
<path d="M270.136 78.7488L258.881 90.2065L255.578 86.904L274.18 68.0325C275.932 66.0106 276.943 63.6741 277.213 61.0231V55.9683H281.863V61.0231C281.549 64.9322 280.089 68.3695 277.483 71.335L273.371 75.4463L274.652 76.8617C276.764 79.6475 277.842 82.8601 277.887 86.4996V111.639H273.304V86.4996C273.304 84.1182 272.63 81.9615 271.282 80.0294L270.136 78.7488Z" fill="white"/>
<path d="M211.567 75.8507C211.432 74.9072 210.87 74.4129 209.882 74.368H192.291V69.8523H209.882C213.611 70.1668 215.656 72.1663 216.015 75.8507C215.79 78.9061 214.667 81.602 212.645 83.9385L205.164 91.5545V96.8116C205.029 99.7321 204.423 102.54 203.344 105.236L200.177 112.381L196.065 110.561L199.233 103.484C200.042 101.327 200.514 99.1031 200.648 96.8116V77.7379H205.164V85.1517L209.41 80.9056C210.623 79.4228 211.342 77.7379 211.567 75.8507Z" fill="white"/>
<path d="M148.548 64.3256V75.6485C148.369 79.4677 147.537 83.1297 146.055 86.6344L134.26 111.369L130.149 109.348L141.876 84.6798C143.044 81.7592 143.741 78.7488 143.965 75.6485V64.3256C143.741 62.4834 142.752 61.4948 141 61.3601H120.174V56.777H141C145.538 57.1364 148.054 59.6526 148.548 64.3256Z" fill="white"/>
</svg>
