<svg width="334" height="80" viewBox="0 0 334 80" fill="none" xmlns="http://www.w3.org/2000/svg">
<path d="M264.875 53.0978C267.21 52.2592 269.454 51.8398 271.607 51.8398C273.715 51.8398 275.358 52.3838 276.537 53.4718C277.716 54.5372 278.305 55.9538 278.305 57.7218C278.305 58.5378 278.226 59.2632 278.067 59.8978C277.908 60.5325 277.636 61.1105 277.251 61.6318C276.888 62.1532 276.571 62.5612 276.299 62.8558C276.05 63.1505 275.642 63.5358 275.075 64.0118C274.599 64.4652 274.248 64.8165 274.021 65.0658C273.794 65.2925 273.522 65.6438 273.205 66.1198C272.888 66.5732 272.65 67.0718 272.491 67.6158C272.355 68.1372 272.276 68.7378 272.253 69.4178H268.785C268.785 68.6698 268.864 67.9672 269.023 67.3098C269.182 66.6298 269.352 66.0745 269.533 65.6438C269.737 65.1905 270.02 64.7258 270.383 64.2498C270.746 63.7512 271.04 63.3885 271.267 63.1618C271.494 62.9125 271.822 62.5838 272.253 62.1758C272.752 61.6772 273.126 61.2918 273.375 61.0198C273.624 60.7478 273.862 60.3625 274.089 59.8638C274.338 59.3652 274.463 58.8438 274.463 58.2998C274.463 56.5545 273.364 55.6818 271.165 55.6818C269.533 55.6818 267.652 56.1012 265.521 56.9398L264.875 53.0978ZM268.615 76.9998V72.2398H272.423V76.9998H268.615Z" fill="#004098"/>
<path d="M243.999 53.1322L246.447 60.9862C247.036 63.1622 246.866 65.2815 245.937 67.3442L244.645 69.4522L241.789 67.7862L243.081 65.6442C243.557 64.4202 243.614 63.2075 243.251 62.0062L240.803 54.1182L243.999 53.1322ZM228.155 74.0082C228.744 72.3762 229.073 70.6762 229.141 68.9082V59.8642H227.237V56.5322H229.141V50.8882H232.473V56.5322H234.751C237.584 56.8042 239.137 58.3569 239.409 61.1902V74.3822C239.25 77.1022 237.868 78.6549 235.261 79.0402H232.745V75.7082H235.261C235.805 75.4815 236.088 75.0395 236.111 74.3822V61.1902C236.043 60.3742 235.59 59.9322 234.751 59.8642H232.473V68.9082C232.405 71.1068 231.997 73.2262 231.249 75.2662L229.719 79.0402L226.625 77.7482L228.155 74.0082Z" fill="#004098"/>
<path d="M201.771 62.5499V56.7699H193.305V53.4719H201.771V50.9219H205.103V53.4719H210.747V56.7699H205.103V62.8899C206.961 63.7059 207.947 65.1452 208.061 67.2079V71.7299C207.925 74.0872 207.041 76.1159 205.409 77.8159L203.267 79.7199L201.057 77.2719L203.165 75.3679C204.094 74.3252 204.615 73.1125 204.729 71.7299V69.3499C203.89 71.1179 202.496 72.0585 200.547 72.1719C197.759 71.8772 196.251 70.3359 196.025 67.5479V67.2079C196.297 64.3745 197.849 62.8219 200.683 62.5499H201.771ZM201.771 67.5479V65.8819H200.683C199.867 65.9499 199.425 66.3919 199.357 67.2079V67.5479C199.402 68.3185 199.799 68.7605 200.547 68.8739C201.295 68.7605 201.703 68.3185 201.771 67.5479Z" fill="#004098"/>
<path d="M173.755 68.7041C174.797 69.2481 175.353 70.1321 175.421 71.3561V73.0901H172.123V71.5941C171.692 71.3674 171.25 71.2654 170.797 71.2881H170.253V74.2801C169.981 77.1134 168.428 78.6661 165.595 78.9381H165.221C162.365 78.6661 160.812 77.1134 160.562 74.2801V72.6141C160.812 69.7807 162.365 68.2281 165.221 67.9561H166.921V62.7881H160.562V59.4561H166.921V56.7021H160.562V53.4041H166.921V50.9561H170.253V53.4041H174.469V56.7021H170.253V59.4561H174.469V62.7881H170.253V67.9561H170.797C171.839 67.9561 172.825 68.2054 173.755 68.7041ZM166.921 74.2801V71.2881H165.221C164.382 71.3561 163.94 71.7981 163.895 72.6141V74.2801C163.94 75.0961 164.382 75.5381 165.221 75.6061H165.595C166.411 75.5381 166.853 75.0961 166.921 74.2801Z" fill="#004098"/>
<path d="M127.584 79.1081C124.932 78.7228 123.538 77.1815 123.402 74.4841V53.3701H126.7V74.4841C126.678 75.1415 126.972 75.5834 127.584 75.8101C128.423 75.5608 128.99 75.0054 129.284 74.1441L130.61 69.3841L133.772 70.2681L132.446 75.0281C132.106 76.1388 131.517 77.0795 130.678 77.8501C129.772 78.6435 128.74 79.0628 127.584 79.1081ZM139.042 56.8041L141.422 62.8561C142.148 64.9188 142.556 67.0381 142.646 69.2141V75.8781H139.314V69.2141C139.224 67.4461 138.895 65.7348 138.328 64.0801L135.948 57.9941L139.042 56.8041Z" fill="#004098"/>
<path d="M90.0123 57.5861V54.2541H96.6083L95.9963 51.2281L99.2263 50.5821L100.008 54.2541H107.216V57.5861H100.654L102.524 66.9701C102.864 68.3527 102.615 69.6334 101.776 70.8121C101.21 71.4921 100.473 71.8547 99.5663 71.9001H97.5943V68.5681H99.2603C99.3283 68.2507 99.3283 67.9447 99.2603 67.6501L97.2883 57.5861H90.0123ZM88.6523 74.4841V70.0301H91.9503V74.4841C92.0183 75.3001 92.4603 75.7421 93.2763 75.8101H98.3763V79.1081H93.2763C90.4657 78.8361 88.9243 77.2947 88.6523 74.4841ZM103.102 51.8061V49.0181H105.924V51.8061H103.102ZM107.318 51.8061V49.0181H110.106V51.8061H107.318Z" fill="#004098"/>
<path d="M65.261 61.6321L66.689 56.8041C66.757 56.6001 66.757 56.4187 66.689 56.2601C66.5304 56.1241 66.349 56.0674 66.145 56.0901H57.543V52.7581H66.145C67.437 52.7354 68.5024 53.2341 69.341 54.2541C70.0664 55.3194 70.2364 56.4867 69.851 57.7561L68.423 62.5501L65.261 61.6321ZM70.361 75.7081V79.0401H60.365C57.5317 78.7681 55.979 77.2154 55.707 74.3821V68.8741H59.039V74.3821C59.107 75.1981 59.549 75.6401 60.365 75.7081H70.361ZM68.423 51.8061V49.0181H71.245V51.8061H68.423ZM72.639 51.8061V49.0181H75.427V51.8061H72.639Z" fill="#004098"/>
<path d="M315.808 30.5641L315.094 27.8441C314.596 25.8267 314.335 23.7754 314.312 21.6901V2.95605H317.61V21.6901C317.633 23.4581 317.86 25.2147 318.29 26.9601L319.004 29.7141L315.808 30.5641ZM332.876 8.70205H330.53V19.9561H333.216V23.2881H330.53V26.2801C330.326 29.0227 328.876 30.5754 326.178 30.9381C323.458 30.5981 322.008 29.0454 321.826 26.2801V24.6141C322.098 21.7807 323.651 20.2281 326.484 19.9561H327.198V8.70205H321.52V5.40405H327.198V2.95605H330.53V5.40405H332.876V8.70205ZM327.198 26.2801V23.2881H326.484C325.668 23.3561 325.226 23.7981 325.158 24.6141V26.2801C325.158 27.0054 325.498 27.4474 326.178 27.6061C326.836 27.4247 327.176 26.9827 327.198 26.2801Z" fill="#004098"/>
<path d="M291.159 10.062C291.499 9.06466 291.782 8.06733 292.009 7.06999H286.297C286.569 8.38466 286.75 9.38199 286.841 10.062H291.159ZM285.243 21.86H289.493V19.582H286.025C285.821 20.3073 285.56 21.0667 285.243 21.86ZM292.995 27.878H299.659V31.55H281.571V27.878H289.493V25.226H284.563V22.404C284.268 23.3787 283.883 24.206 283.407 24.886L282.013 23.322C281.627 26.7673 280.845 29.7707 279.667 32.332L277.219 28.626C277.876 26.6993 278.341 24.58 278.613 22.268C278.885 19.956 279.021 16.76 279.021 12.68V10.062H283.237C283.101 9.38199 282.908 8.38466 282.659 7.06999H278.885V3.49999H287.113V0.541992H290.717V3.49999H298.843V7.06999H295.647C295.443 7.95399 295.182 8.95132 294.865 10.062H299.353V13.632H282.455V15.842C282.455 17.3833 282.409 19.072 282.319 20.908C283.203 18.732 283.951 16.42 284.563 13.972L287.589 14.754C287.521 14.9353 287.43 15.196 287.317 15.536C287.226 15.876 287.192 16.08 287.215 16.148H289.493V14.482H292.995V16.148H298.945V19.582H292.995V21.86H298.197V25.226H292.995V27.878Z" fill="#004098"/>
<path d="M248.726 13.0879L248.386 11.6599C247.774 12.1132 247.128 12.5892 246.448 13.0879H248.726ZM259.164 13.0879C258.167 12.2719 257.351 11.2292 256.716 9.95991C255.719 11.2519 254.382 12.2946 252.704 13.0879H259.164ZM248.998 22.7779V23.9339H259.402V22.7779H248.998ZM248.998 19.2759V20.4319H259.402V19.2759H248.998ZM248.998 16.8959H259.402V15.7739H248.998V16.8959ZM248.25 7.00191C246.936 6.27658 245.338 5.47191 243.456 4.58791L244.816 1.45991C246.63 2.20791 248.239 2.98991 249.644 3.80591L248.25 7.00191ZM242.98 10.5719C245.542 9.46125 247.695 8.29391 249.44 7.06991L250.664 10.1979C252.138 9.67658 253.237 9.05325 253.962 8.32791C254.688 7.60258 255.096 6.75258 255.186 5.77791H253.69C253.101 6.68458 252.33 7.53458 251.378 8.32791L248.964 5.94791C250.664 4.36125 251.979 2.61591 252.908 0.711914L256.206 1.22191C256.002 1.67525 255.832 2.11725 255.696 2.54791H264.706V5.77791C264.094 7.20591 263.176 8.55458 261.952 9.82391L259.47 7.54591C260.037 7.04725 260.479 6.45791 260.796 5.77791H258.62C258.688 7.22858 259.21 8.40725 260.184 9.31391C261.182 10.2206 262.927 10.9686 265.42 11.5579L264.4 14.9579C264.128 14.9352 263.664 14.7992 263.006 14.5499V26.7219H260.592C262.247 27.6286 263.845 28.5579 265.386 29.5099L263.856 32.6039C261.567 31.0852 258.926 29.6799 255.934 28.3879L256.41 26.7219H252.024L252.5 28.0819C250.506 29.8046 247.763 31.2439 244.272 32.3999L243.048 29.1699C245.224 28.4446 246.981 27.6286 248.318 26.7219H245.394V13.2579C245.077 13.5072 244.601 13.7452 243.966 13.9719L242.98 10.5719Z" fill="#004098"/>
<path d="M222.783 25.838C223.531 24.3193 223.95 22.7326 224.041 21.078V9.07597C223.973 8.25997 223.531 7.81797 222.715 7.74997H221.219V15.808C221.151 17.9613 220.822 20.0806 220.233 22.166L218.669 26.96C218.351 27.8666 217.898 28.728 217.309 29.544C216.651 30.4053 215.779 30.8813 214.691 30.972C213.489 30.8586 212.662 30.2466 212.209 29.136C211.801 28.2293 211.608 27.2886 211.631 26.314V9.07597C211.88 6.21997 213.421 4.6673 216.255 4.41797H222.715C225.548 4.68997 227.089 6.24264 227.339 9.07597V21.078C227.225 23.3446 226.67 25.4753 225.673 27.47L223.701 31.006L220.811 29.34L222.783 25.838ZM217.887 15.808V7.74997H216.255C215.439 7.81797 214.997 8.25997 214.929 9.07597V26.314C214.929 26.5633 214.951 26.79 214.997 26.994C215.201 26.654 215.371 26.3026 215.507 25.94L217.037 21.146C217.535 19.4006 217.819 17.6213 217.887 15.808Z" fill="#004098"/>
<path d="M177.936 18.4601H183.036V10.3681H177.936V18.4601ZM177.936 22.2001V24.1381H174.57V6.49206H183.036V1.01807H186.64V6.49206H195.106V24.1381H191.74V22.2001H186.64V32.5021H183.036V22.2001H177.936ZM191.74 18.4601V10.3681H186.64V18.4601H191.74Z" fill="#004098"/>
<path d="M148.357 13.6999H144.107V18.6979H148.357V13.6999ZM151.689 13.6999V18.6979H156.551V13.6999H151.689ZM148.357 10.2319V5.60786H144.107V10.2319H148.357ZM151.689 10.2319H156.551V5.60786H151.689V10.2319ZM140.707 1.90186H159.951V26.6199C159.951 28.0252 159.917 29.0452 159.849 29.6799C159.804 30.3145 159.622 30.8472 159.305 31.2779C159.01 31.7085 158.636 31.9579 158.183 32.0259C157.73 32.1165 157.05 32.1619 156.143 32.1619C155.735 32.1619 154.647 32.1052 152.879 31.9919L152.709 28.2519C154.364 28.3879 155.327 28.4445 155.599 28.4219C156.075 28.4219 156.347 28.3539 156.415 28.2179C156.506 28.0592 156.551 27.6059 156.551 26.8579V22.1319H151.689V31.3799H148.357V22.1319H143.903C143.563 26.1439 142.634 29.5665 141.115 32.3999L138.293 29.4419C139.2 27.5379 139.823 25.5545 140.163 23.4919C140.526 21.4065 140.707 18.4032 140.707 14.4819V1.90186Z" fill="#004098"/>
<path d="M122.893 6.55986V5.26786H119.935V6.55986H122.893ZM119.935 14.9579H122.111V13.6319H119.935V14.9579ZM119.935 17.3379V18.7319H122.111V17.3379H119.935ZM114.325 14.9579H116.569V13.6319H114.325V14.9579ZM114.325 18.7319H116.569V17.3379H114.325V18.7319ZM104.431 13.9379H110.041V24.7839C110.223 25.2145 110.404 25.5885 110.585 25.9059V22.7439H116.569V21.5199H111.197V10.8099H116.569V9.58586H111.571V8.42986H110.585L108.613 10.9459C107.253 8.90586 105.814 6.83185 104.295 4.72386L106.573 2.07186C108.183 4.29319 109.452 6.31052 110.381 8.12386V1.90186H126.089V8.42986H124.865V9.58586H119.935V10.8099H125.239V21.5199H119.935V22.7439H126.123V26.0079H119.935V28.0819H126.361L126.191 31.7199H119.527C116.467 31.7199 114.121 31.4932 112.489 31.0399C110.88 30.5865 109.701 29.7932 108.953 28.6599C108.16 29.7932 107.038 30.9945 105.587 32.2639L104.023 28.6939C104.953 27.9005 105.871 26.9485 106.777 25.8379V17.6779H104.431V13.9379ZM116.569 5.26786H113.543V6.55986H116.569V5.26786ZM111.163 26.6199C111.571 27.0505 112.206 27.3792 113.067 27.6059C113.951 27.8325 115.119 27.9799 116.569 28.0479V26.0079H110.653C110.812 26.2345 110.982 26.4385 111.163 26.6199Z" fill="#004098"/>
<path d="M67.0312 25.294L69.6152 22.438C71.0886 24.7273 72.6526 27.2547 74.3072 30.02L71.5872 32.604C70.1592 30.1107 68.6406 27.674 67.0312 25.294Z" fill="#004098"/>
<path d="M35.3098 7.58025V3.73825H42.6538C42.9031 2.76358 43.1638 1.65292 43.4358 0.40625L46.8698 0.78025C46.6884 1.66425 46.4844 2.65025 46.2578 3.73825H56.7298V7.58025H45.1018C44.0818 10.5042 42.7218 13.2809 41.0218 15.9103V32.0603H37.5198V19.4803C37.1571 20.2509 36.4998 21.0329 35.5478 21.8263L34.4258 17.3382C35.6044 16.2956 36.6358 15.1962 37.5198 14.0402V10.9803H39.6958C40.3078 9.80158 40.8064 8.66825 41.1918 7.58025H35.3098ZM51.1198 27.0623H56.9678V30.9383H41.5318V27.0623H47.6518V19.1403H42.4838V15.4003H47.6518V9.34825H51.1198V15.4003H56.2198V19.1403H51.1198V27.0623Z" fill="#004098"/>
<path d="M11.8155 16.5218V18.7658H18.2415V16.5218H11.8155ZM11.8155 11.1498V13.3938H18.2415V11.1498H11.8155ZM11.8155 7.98778H18.2415V5.77778H11.8155V7.98778ZM8.2455 6.72978H6.0015V12.8498H8.1435V16.7258H6.0015V23.4238C6.77217 23.0384 7.5655 22.6871 8.3815 22.3698L8.6195 26.1098C6.08083 27.3338 3.37217 28.3538 0.4935 29.1698L0.1875 25.3278C0.7995 25.1691 1.6155 24.9084 2.6355 24.5458V16.7258H0.5615V12.8498H2.6355V6.72978H0.3235V2.75178H8.2455V6.72978ZM19.3975 31.6518H17.6635C16.4848 31.6291 15.7368 31.4591 15.4195 31.1418C15.1022 30.8471 14.9435 30.1218 14.9435 28.9658V22.3698H14.2635C13.7875 27.4924 11.2488 30.7564 6.6475 32.1618L5.5255 28.5238C8.81217 27.5264 10.6482 25.4751 11.0335 22.3698H8.5175V2.07178H21.7095V22.3698H18.1735V26.8578C18.1735 27.3564 18.1848 27.6624 18.2075 27.7758C18.2302 27.8664 18.2868 27.9231 18.3775 27.9458C18.4228 27.9458 18.4908 27.9571 18.5815 27.9798C18.6948 27.9798 18.7742 27.9798 18.8195 27.9798C18.8648 27.9798 18.9442 27.9798 19.0575 27.9798C19.1708 27.9571 19.2388 27.9458 19.2615 27.9458C19.4428 27.9231 19.5562 27.7984 19.6015 27.5718C19.7148 27.2318 19.7828 25.8944 19.8055 23.5598L22.9335 24.0018C22.8882 25.0671 22.8542 25.8831 22.8315 26.4498C22.8088 27.0164 22.7635 27.6171 22.6955 28.2518C22.6502 28.8638 22.6048 29.3058 22.5595 29.5778C22.5142 29.8724 22.4122 30.1784 22.2535 30.4958C22.1175 30.8131 21.9815 31.0171 21.8455 31.1078C21.7095 31.1984 21.4942 31.3004 21.1995 31.4138C20.9048 31.5271 20.6328 31.5838 20.3835 31.5838C20.1568 31.6064 19.8282 31.6291 19.3975 31.6518Z" fill="#004098"/>
</svg>
