<svg width="364" height="81" viewBox="0 0 364 81" fill="none" xmlns="http://www.w3.org/2000/svg">
<path d="M189 0H269.463V80.4631H189V0Z" fill="#FAD06C"/>
<path d="M269.463 0V80.4631H189V0H269.463ZM192.095 77.3684H266.368V3.09473H192.095V77.3684Z" fill="#FAD06C"/>
<path d="M233.912 35.9731V45.0873H237.153V35.9731H233.912ZM233.912 32.5299H237.153V23.9221H233.912V32.5299ZM227.127 35.9731V45.0873H230.469V35.9731H227.127ZM227.127 32.5299H230.469V23.9221H227.127V32.5299ZM223.684 35.9731H220.494V45.0873H223.684V35.9731ZM220.494 23.9221V32.5299H223.684V23.9221H220.494ZM240.647 32.5299H245.102V35.9731H240.647V45.0873H244.444V48.3279H213.152V45.0873H217V35.9731H212.494V32.5299H217V27.3146C216.73 28.4961 216.072 29.6775 215.026 30.859L212.393 28.6817C215.397 24.8335 217.827 20.4114 219.684 15.4155L222.975 16.3776C222.334 17.9979 221.827 19.4156 221.456 20.6309H243.735V23.9221H240.647V32.5299ZM212.747 60.4295C214.637 57.2901 216.393 53.7626 218.013 49.8469L221 51.5178C219.414 55.5011 217.591 59.1467 215.532 62.4548L212.747 60.4295ZM224.19 62.3536C223.887 58.9779 223.414 55.2816 222.773 51.2646L226.216 50.657C226.857 54.4715 227.347 58.2016 227.684 61.8472L224.19 62.3536ZM232.95 62.2523C232.14 59.0117 231.077 55.3492 229.76 51.2646L232.95 50.2013C234.368 54.3871 235.465 58.0834 236.241 61.2902L232.95 62.2523ZM242.166 62.151C240.512 58.4378 238.722 54.8428 236.798 51.3659L239.634 49.5431C241.727 53.4588 243.516 57.0707 245.001 60.3788L242.166 62.151Z" fill="#004098"/>
<path d="M283.512 0H363.975V80.4631H283.512V0Z" fill="#FAD06C"/>
<path d="M363.975 0V80.4631H283.512V0H363.975ZM286.606 77.3684H360.88V3.09473H286.606V77.3684Z" fill="#FAD06C"/>
<path d="M333.339 50.2012L318.958 54.0495L318.655 50.6063L333.339 46.6568V17.2383H336.883V45.948L340.326 45.0365L340.63 48.4797L336.883 49.4924V62.5054H333.339V50.2012ZM330.503 32.3273C328.343 29.1542 325.98 25.9811 323.414 22.8081L325.794 20.2763C328.461 23.3819 330.841 26.555 332.934 29.7956L330.503 32.3273ZM328.174 44.5808C325.879 41.239 323.364 37.8465 320.629 34.4033L322.959 31.8716C325.727 35.146 328.258 38.5216 330.554 41.9985L328.174 44.5808ZM320.427 33.3906V36.6819H316.477C318.537 42.6905 319.853 46.5218 320.427 48.1759L317.996 50.2519C316.612 46.5387 315.802 43.5175 315.566 41.1883V62.5054H312.123V43.2137C311.448 48.1421 310.013 52.5473 307.819 56.4293L305.996 52.9355C308.595 47.7708 310.452 42.3529 311.566 36.6819H306.806V33.3906H312.123V31.1121V17.2383H315.566V30.8589C316.646 26.9432 317.456 23.1119 317.996 19.3649L321.136 19.8713C320.528 23.9558 319.6 28.0234 318.351 32.0741L315.566 31.0615V33.3906H320.427ZM306.604 20.5801L309.692 19.6687C310.671 23.6182 311.481 27.4327 312.123 31.1121L309.186 31.9729C308.342 27.8209 307.481 24.0233 306.604 20.5801Z" fill="#004098"/>
<path d="M94.5117 0H174.975V80.4631H94.5117V0Z" fill="#FAD06C"/>
<path d="M174.975 0V80.4631H94.5117V0H174.975ZM97.6065 77.3684H171.88V3.09473H97.6065V77.3684Z" fill="#FAD06C"/>
<path d="M123.362 60.5305V62.7584H119.97V47.6187H131.565V58.3025C134.401 56.9523 136.477 55.0619 137.793 52.6315C139.177 50.1335 139.869 46.8929 139.869 42.9097V36.6817H143.363V42.9097C143.363 50.5386 146.35 55.7202 152.325 58.4544L151.211 61.8976C146.418 59.8722 143.245 56.2772 141.692 51.1125C140.173 56.3447 137 59.9397 132.173 61.8976L131.565 59.6697V60.5305H123.362ZM123.362 57.3405H128.274V50.8593H123.362V57.3405ZM139.869 17.3394H143.363V21.4914C143.363 25.3396 144.055 28.5464 145.439 31.1119C146.823 33.6774 149.051 35.6521 152.123 37.0361L151.059 40.4286C146.333 38.4708 143.211 34.9264 141.692 29.7954C140.207 34.9601 137.084 38.5045 132.325 40.4286L131.261 37.0361C134.265 35.6859 136.443 33.7449 137.793 31.2132C139.177 28.6815 139.869 25.4409 139.869 21.4914V17.3394ZM132.223 29.3903V29.3397H118.957V25.9472H132.527V28.6815C133.641 26.0147 134.485 23.0779 135.059 19.8711L138.198 20.7319C137.624 24.31 136.628 27.635 135.211 30.7068L132.223 29.3903ZM147.92 29.8967L144.932 28.3776C146.451 25.6434 147.616 22.5885 148.426 19.2128L151.566 20.2255C150.789 23.7362 149.574 26.9599 147.92 29.8967ZM131.717 50.5049C133.033 47.6356 133.945 44.4625 134.451 40.9856L137.641 41.7957C137.067 45.4077 136.071 48.7495 134.654 51.8213L131.717 50.5049ZM148.122 51.7201L145.135 50.201C146.654 47.4668 147.802 44.4119 148.578 41.0362L151.717 42.0996C150.975 45.5764 149.776 48.7833 148.122 51.7201ZM119.97 22.1496V18.8584H131.514V22.1496H119.97ZM120.223 36.4791V33.2892H131.413V36.4791H120.223ZM120.223 43.6692V40.4286H131.413V43.6692H120.223Z" fill="#004098"/>
<path d="M0 0.000488281H80.4631V80.4636H0V0.000488281Z" fill="#FAD06C"/>
<path d="M80.4631 0.000488281V80.4636H0V0.000488281H80.4631ZM3.09473 77.3689H77.3684V3.09522H3.09473V77.3689Z" fill="#FAD06C"/>
<path d="M42.4443 46.4459V55.6108H52.5206V46.4459H42.4443ZM42.4443 34.0912V43.1547H52.5206V34.0912H42.4443ZM42.4443 30.7999H52.5206V21.9389H42.4443V30.7999ZM56.0143 18.5971V61.6363H52.5206V58.902H42.4443V61.6363H39.0518V44.1674L36.7226 46.1421C35.71 43.4416 34.6804 39.8972 33.6339 35.5089V62.1426H30.1908V37.0786C29.4482 42.8847 27.7941 48.0831 25.2286 52.674L23.2539 49.2815C26.3257 42.8678 28.4355 36.2684 29.5832 29.4834H24.7223V25.9897H30.1908V16.8755H33.6339V25.9897H37.8366V29.4834H34.2416L39.0518 43.3066V18.5971H56.0143Z" fill="#004098"/>
</svg>
