<svg width="614" height="249" viewBox="0 0 614 249" fill="none" xmlns="http://www.w3.org/2000/svg">
<path d="M0 87V22H6V87C6 99.1503 15.8497 109 28 109H398V115H28C12.536 115 0 102.464 0 87Z" fill="#004098"/>
<path d="M435.193 114.75L388.059 159.183L383.942 154.817L432.809 108.75H611V114.75H435.193Z" fill="#004098"/>
<path d="M536.17 9.73835C540.396 8.2204 544.457 7.46143 548.355 7.46143C552.17 7.46143 555.144 8.44604 557.278 10.4153C559.411 12.3435 560.478 14.9076 560.478 18.1076C560.478 19.5845 560.334 20.8973 560.047 22.046C559.76 23.1948 559.267 24.2409 558.57 25.1845C557.914 26.1281 557.339 26.8666 556.847 27.3999C556.396 27.9332 555.657 28.6307 554.631 29.4922C553.77 30.3127 553.134 30.9486 552.724 31.3999C552.314 31.8101 551.821 32.446 551.247 33.3076C550.672 34.1281 550.242 35.0307 549.954 36.0153C549.708 36.9589 549.565 38.046 549.524 39.2768H543.247C543.247 37.923 543.39 36.6512 543.678 35.4614C543.965 34.2307 544.272 33.2255 544.601 32.446C544.97 31.6255 545.483 30.7845 546.139 29.923C546.796 29.0204 547.329 28.364 547.739 27.9537C548.149 27.5024 548.744 26.9076 549.524 26.1691C550.426 25.2666 551.103 24.5691 551.555 24.0768C552.006 23.5845 552.437 22.8871 552.847 21.9845C553.298 21.0819 553.524 20.1383 553.524 19.1537C553.524 15.9948 551.534 14.4153 547.555 14.4153C544.601 14.4153 541.196 15.1742 537.339 16.6922L536.17 9.73835ZM542.939 52.9999V44.3845H549.831V52.9999H542.939Z" fill="#004098"/>
<path d="M465.276 55.8308L463.984 50.9077C463.081 47.2564 462.609 43.5436 462.568 39.7693V5.86157H468.538V39.7693C468.579 42.9693 468.989 46.1488 469.768 49.3077L471.061 54.2923L465.276 55.8308ZM496.168 16.2616H491.922V36.6308H496.784V42.6616H491.922V48.077C491.553 53.0411 488.927 55.8513 484.045 56.5077C479.122 55.8923 476.497 53.0821 476.168 48.077V45.0616C476.661 39.9334 479.471 37.1231 484.599 36.6308H485.891V16.2616H475.615V10.2923H485.891V5.86157H491.922V10.2923H496.168V16.2616ZM485.891 48.077V42.6616H484.599C483.122 42.7846 482.322 43.5847 482.199 45.0616V48.077C482.199 49.3898 482.815 50.1898 484.045 50.477C485.235 50.1488 485.85 49.3488 485.891 48.077Z" fill="#004098"/>
<path d="M426.631 9.79992C428.518 9.59479 429.544 8.56915 429.708 6.723C429.544 4.79479 428.518 3.74864 426.631 3.58454C424.744 3.74864 423.739 4.79479 423.616 6.723C423.698 8.61018 424.703 9.63582 426.631 9.79992ZM426.631 0.322998C430.529 0.692229 432.682 2.82556 433.093 6.723C432.682 10.5794 430.529 12.7333 426.631 13.1845C425.647 13.0615 424.765 12.8358 423.985 12.5076C424.026 12.8358 424.067 13.1435 424.108 13.4307V23.7692C423.944 27.3794 423.144 30.8461 421.708 34.1692L410.939 56.7538L405.523 54.1692L416.293 31.5845C417.318 29.0409 417.913 26.4358 418.077 23.7692V13.4307C417.913 12.323 417.318 11.7281 416.293 11.6461H397.277V5.61531H416.293C417.811 5.73838 419.124 6.10762 420.231 6.723C420.6 2.82556 422.734 0.692229 426.631 0.322998Z" fill="#004098"/>
<path d="M339.677 27.9539L330.016 37.677L325.77 33.4924L342.754 16.2C344.19 14.477 345.031 12.5488 345.277 10.4154V5.80005H351.308V10.4154C351.021 14.2308 349.605 17.5744 347.062 20.4462L343.923 23.5847L344.477 24.2616C345.544 25.4924 346.344 26.9488 346.877 28.6308C347.452 30.2308 347.739 31.9129 347.739 33.677V56.6308H341.708V33.677C341.708 31.7488 341.195 29.9847 340.17 28.3847L339.677 27.9539Z" fill="#004098"/>
<path d="M271.554 57.1231L266.2 54.4155L276.969 32.9385L267.8 28.2001L270.569 22.8462L278.939 27.1539C279.144 26.2103 279.246 25.2462 279.246 24.2616V13.5539C279.123 12.4872 278.528 11.8924 277.462 11.7693H272.846C271.41 11.9334 270.446 12.7129 269.954 14.1078L268.785 19.5847C268.087 22.6206 266.898 25.4103 265.215 27.9539L263.308 30.2924L258.631 26.4154L260.662 24.077C261.687 22.2719 262.446 20.3847 262.939 18.4154L264.108 12.877C265.339 8.52827 268.251 6.14878 272.846 5.73853H277.462C282.221 6.18981 284.826 8.79493 285.277 13.5539V24.2616C285.154 27.9129 284.333 31.4001 282.815 34.7231L271.554 57.1231Z" fill="#004098"/>
<path d="M208.292 48.6923C209.195 45.5333 209.728 42.3128 209.892 39.0308V33.6154H203.184L202.631 48.2C202.549 50.2923 201.851 52.1795 200.538 53.8615C199.102 55.5026 197.277 56.3846 195.061 56.5077C192.846 56.3846 191.041 55.482 189.646 53.8C188.374 52.0769 187.738 50.1692 187.738 48.0769V36.0154C188.231 30.8461 191.041 28.0359 196.169 27.5846H197.4L197.892 14.3538C197.892 13.6974 197.687 13.1641 197.277 12.7538C196.825 12.2615 196.313 12.0359 195.738 12.0769H189.215V6.04614H195.738C198.036 6.04614 200.005 6.88717 201.646 8.56922C203.205 10.2102 203.964 12.2205 203.923 14.6L203.431 27.5846H209.892V10.8461H215.861V27.5846H219.984V33.6154H215.861V39.0308C215.738 42.9282 215.123 46.7641 214.015 50.5384L212.231 56.2L206.508 54.2923L208.292 48.6923ZM196.661 47.9538L197.215 33.6154H196.169C194.692 33.6974 193.892 34.4974 193.769 36.0154V48.0769C193.728 49.1436 194.159 49.9436 195.061 50.4769C196.128 49.9846 196.661 49.1436 196.661 47.9538Z" fill="#004098"/>
<path d="M147.801 42.9693L145.216 47.6463C142.877 44.2822 141.462 42.0668 140.97 41.0001C139.288 43.995 137.298 46.5796 135.001 48.754L132.908 43.5232V49.1847H147.801V42.9693ZM132.908 30.2309V42.5386C134.221 40.8155 135.595 38.6822 137.031 36.1386C135.39 33.9232 134.016 31.954 132.908 30.2309ZM136.539 20.5693L130.939 22.7847C129.708 16.3847 128.457 10.9283 127.185 6.4155L132.785 4.13858C134.303 9.80011 135.554 15.277 136.539 20.5693ZM149.401 24.1386L143.862 21.3693C144.149 20.6719 144.416 19.954 144.662 19.2155L139.185 21.1847C138.036 14.2104 136.888 8.61037 135.739 4.38473L141.277 2.53857C142.508 7.01037 143.657 12.5283 144.724 19.0924C146.201 14.7847 147.616 9.47191 148.97 3.15396L154.816 5.18473C153.093 13.1027 151.288 19.4206 149.401 24.1386ZM117.339 37.4924L112.908 36.3232C113.893 29.1027 114.631 21.8001 115.124 14.4155L118.385 14.9693V2.96935H124.416V13.7386L127.062 12.754C127.842 16.8565 128.498 20.877 129.031 24.8155H132.908V29.3078L135.185 24.6924C137.154 26.5796 138.816 28.5078 140.17 30.477C141.031 28.1386 141.893 25.595 142.754 22.8463L147.677 25.9232C146.734 29.2052 145.585 32.3642 144.231 35.4001C145.462 37.2873 146.652 39.4001 147.801 41.7386V24.8155H153.831V58.4155H147.677V55.5847H132.97V58.4155H127.001V27.7078L125.093 28.3232C124.847 26.477 124.621 23.6258 124.416 19.7693V58.7232H118.385V23.7693C118.385 28.2411 118.036 32.8155 117.339 37.4924Z" fill="#004098"/>
<path d="M58.077 56.6924C55.8206 56.6103 54.0154 55.7078 52.6616 53.9847C51.3898 52.3026 50.7539 50.3949 50.7539 48.2616V35.8308C51.2462 30.7026 54.0565 27.8924 59.1847 27.4001H59.3693V16.2616H51.9231V10.2924H59.3693V5.73853H65.3385V10.2924H73.2154V16.2616H65.3385V27.4001H71.0616C76.1488 27.8924 78.959 30.7026 79.4924 35.8308V48.2616C79.4513 52.9385 77.236 55.7488 72.8462 56.6924H69.3385V50.6616H72.6616C73.1949 49.9231 73.4616 49.1231 73.4616 48.2616V35.8308C73.2975 34.3539 72.4975 33.5539 71.0616 33.4308H65.3385V48.2616C65.3385 50.3539 64.7026 52.2616 63.4308 53.9847C62.036 55.7078 60.2513 56.6103 58.077 56.6924ZM56.7847 35.8308V48.2616C56.7436 49.3283 57.1744 50.1283 58.077 50.6616C58.9385 50.1693 59.3693 49.3693 59.3693 48.2616V33.4308H59.1847C57.7078 33.5539 56.9078 34.3539 56.7847 35.8308ZM84.1693 26.1693L78.2616 27.4001L75.7385 15.1539L81.6462 13.9231L84.1693 26.1693Z" fill="#004098"/>
</svg>
