<svg width="196" height="49" viewBox="0 0 196 49" fill="none" xmlns="http://www.w3.org/2000/svg">
<path d="M189.521 40.3429C190.629 38.0531 191.257 35.6525 191.405 33.141V12.754C191.257 11.2767 190.463 10.4642 189.023 10.3165H185.2V24.6095C185.089 27.6749 184.609 30.685 183.76 33.6396L180.934 42.5035C180.122 45.3843 178.275 47.194 175.394 47.9327C172.403 47.0832 170.999 45.015 171.184 41.7279V12.754C171.516 8.91302 173.603 6.84478 177.444 6.54932H189.023C192.827 6.91865 194.895 8.98689 195.227 12.754V33.141C195.08 36.3173 194.286 39.3273 192.845 42.1711L189.355 48.3759L186.086 46.5477L189.521 40.3429ZM181.433 24.6095V10.3165H177.444C175.967 10.4642 175.154 11.2767 175.007 12.754V41.7279C174.97 42.5405 175.154 43.316 175.561 44.0547C176.336 43.316 176.927 42.4112 177.333 41.3401L180.159 32.4762C180.897 29.8909 181.322 27.2687 181.433 24.6095Z" fill="#004098"/>
<path d="M135.673 19.0142V3.11462H139.441V19.0142C139.256 22.2643 138.314 25.2744 136.615 28.0443L121.602 48.9299L118.555 46.7139L133.513 25.8284C134.806 23.7232 135.526 21.4518 135.673 19.0142ZM121.325 14.1391C119.922 12.7357 118.26 11.9785 116.339 11.8677H112.295V8.04517H116.339C117.853 8.0821 119.331 8.43296 120.771 9.09776C122.138 9.72562 123.319 10.612 124.317 11.7569L126.699 14.6931L123.707 17.0753L121.325 14.1391Z" fill="#004098"/>
<path d="M79.1647 17.6292V7.15873H82.9319V17.6292C82.7472 20.8424 81.8239 23.834 80.1619 26.6039L65.1487 48.3205L62.0463 46.2153L77.0595 24.4433C78.3153 22.3012 79.017 20.0299 79.1647 17.6292ZM57.2266 12.0339V6.05074H60.9937V12.0339C61.1045 14.4345 61.8247 16.6874 63.1543 18.7926L65.7581 22.5044L62.6557 24.6649L59.9965 21.0086C58.2976 18.2386 57.3743 15.247 57.2266 12.0339ZM78.5553 4.83196V0.677002H82.7103V4.83196H78.5553ZM85.2587 4.83196V0.677002H89.4136V4.83196H85.2587Z" fill="#004098"/>
<path d="M5.37443 3.00378H9.14159V8.48832H20.6647C22.3636 8.48832 23.7486 9.17158 24.8196 10.5381C25.6321 11.9785 25.7429 13.5112 25.152 15.1362L18.6149 31.0913L15.0139 29.7063L21.6619 13.7513C21.8465 13.3819 21.865 13.0126 21.7173 12.6433C21.3849 12.3478 21.034 12.2185 20.6647 12.2555H9.14159V42.282C9.28932 43.7223 10.1018 44.5349 11.5792 44.7195H24.6534V48.5421H11.5792C7.77507 48.1358 5.70683 46.0491 5.37443 42.282V12.2555H0.554688V8.48832H5.37443V3.00378Z" fill="#004098"/>
</svg>
