<svg width="614" height="311" viewBox="0 0 614 311" fill="none" xmlns="http://www.w3.org/2000/svg">
<path d="M0 149V84H6V149C6 161.15 15.8497 171 28 171H398V177H28C12.536 177 0 164.464 0 149Z" fill="#004098"/>
<path d="M435.193 176.75L388.059 221.183L383.942 216.817L432.809 170.75H611V176.75H435.193Z" fill="#004098"/>
<path d="M501.707 81.7383C505.933 80.2204 509.994 79.4614 513.892 79.4614C517.707 79.4614 520.681 80.446 522.815 82.4153C524.948 84.3435 526.015 86.9076 526.015 90.1076C526.015 91.5845 525.871 92.8973 525.584 94.046C525.297 95.1948 524.804 96.2409 524.107 97.1845C523.451 98.1281 522.876 98.8666 522.384 99.3999C521.933 99.9332 521.194 100.631 520.169 101.492C519.307 102.313 518.671 102.949 518.261 103.4C517.851 103.81 517.358 104.446 516.784 105.308C516.21 106.128 515.779 107.031 515.492 108.015C515.245 108.959 515.102 110.046 515.061 111.277H508.784C508.784 109.923 508.928 108.651 509.215 107.461C509.502 106.231 509.81 105.226 510.138 104.446C510.507 103.626 511.02 102.784 511.676 101.923C512.333 101.02 512.866 100.364 513.276 99.9537C513.687 99.5025 514.281 98.9076 515.061 98.1691C515.963 97.2665 516.64 96.5691 517.092 96.0768C517.543 95.5845 517.974 94.8871 518.384 93.9845C518.835 93.0819 519.061 92.1383 519.061 91.1537C519.061 87.9948 517.071 86.4153 513.092 86.4153C510.138 86.4153 506.733 87.1742 502.876 88.6922L501.707 81.7383ZM508.476 125V116.384H515.369V125H508.476Z" fill="#004098"/>
<path d="M457.768 81.8001L462.199 96.0154C463.266 99.9539 462.958 103.79 461.276 107.523L458.938 111.339L453.768 108.323L456.107 104.446C456.968 102.231 457.071 100.036 456.415 97.8616L451.984 83.5847L457.768 81.8001ZM429.091 119.585C430.158 116.631 430.753 113.554 430.876 110.354V93.9847H427.43V87.9539H430.876V77.7385H436.907V87.9539H441.03C446.158 88.4462 448.968 91.2565 449.461 96.3847V120.262C449.174 125.185 446.671 127.995 441.953 128.692H437.399V122.662H441.953C442.938 122.251 443.45 121.451 443.491 120.262V96.3847C443.368 94.9078 442.548 94.1078 441.03 93.9847H436.907V110.354C436.784 114.333 436.045 118.169 434.691 121.862L431.922 128.692L426.322 126.354L429.091 119.585Z" fill="#004098"/>
<path d="M383 122.477L390.016 120.631L391.616 126.354L384.6 128.323C383.862 128.487 383.144 128.59 382.446 128.631C380.887 128.59 379.492 128.118 378.262 127.215C376.416 125.656 375.513 123.708 375.554 121.369V107.892C375.554 106.702 375.062 105.902 374.077 105.492H369.831L364.354 128.754L358.508 127.338L370.323 77.3076L376.169 78.6615L371.246 99.4615H374.077C378.795 100.159 381.298 102.969 381.585 107.892V121.369C381.503 121.779 381.626 122.128 381.954 122.415C382.241 122.579 382.59 122.6 383 122.477Z" fill="#004098"/>
<path d="M311.124 77.8616H317.155V87.8308H322.139V93.8H317.155V101.923C317.155 103.933 316.621 105.78 315.555 107.462C314.324 109.267 312.621 110.231 310.447 110.354H306.632V104.323H310.324C310.898 103.626 311.165 102.826 311.124 101.923V93.8H302.201V120.508C302.283 121.944 303.083 122.744 304.601 122.908H317.586V128.877H304.601C299.432 128.344 296.621 125.554 296.17 120.508V93.8H291.309V87.8308H296.17V77.8616H302.201V87.8308H311.124V77.8616Z" fill="#004098"/>
<path d="M249.4 109.985C251.288 110.969 252.293 112.569 252.416 114.785V117.923H246.447V115.215C245.667 114.805 244.867 114.621 244.047 114.662H243.062V120.077C242.57 125.205 239.759 128.015 234.631 128.508H233.954C228.785 128.015 225.975 125.205 225.523 120.077V117.062C225.975 111.933 228.785 109.123 233.954 108.631H237.031V99.277H225.523V93.2462H237.031V88.2616H225.523V82.2923H237.031V77.8616H243.062V82.2923H250.693V88.2616H243.062V93.2462H250.693V99.277H243.062V108.631H244.047C245.934 108.631 247.718 109.082 249.4 109.985ZM237.031 120.077V114.662H233.954C232.436 114.785 231.636 115.585 231.554 117.062V120.077C231.636 121.554 232.436 122.354 233.954 122.477H234.631C236.108 122.354 236.908 121.554 237.031 120.077Z" fill="#004098"/>
<path d="M167.616 99.2154V105.246H163.431C161.216 105.164 159.452 104.241 158.139 102.477C156.908 100.754 156.293 98.8667 156.293 96.8154V77.8616H162.324V96.8154C162.283 97.8411 162.652 98.6411 163.431 99.2154H167.616ZM175.739 104.015V77.8616H181.77V104.015C181.606 108.077 180.621 111.954 178.816 115.646L171.308 129.431L166.016 126.539L173.524 112.754C174.837 109.964 175.575 107.051 175.739 104.015Z" fill="#004098"/>
<path d="M91.492 128.692C89.2766 128.61 87.492 127.708 86.1382 125.985C84.8664 124.262 84.2305 122.354 84.2305 120.262V107.831C84.6818 102.662 87.492 99.8513 92.6612 99.4001H93.5228V88.3231H86.0151V82.3539H93.5228V77.7385H99.492V82.3539H113.646V88.3231H99.492V99.4001H102.877L104.415 95.4616L110.015 97.6154L109.215 99.5231C113.523 100.59 115.861 103.359 116.23 107.831V120.262C116.189 122.108 115.718 123.892 114.815 125.615C113.748 127.503 112.148 128.528 110.015 128.692H106.815V122.662H109.584C109.954 121.841 110.159 121.041 110.2 120.262V107.831C110.036 106.354 109.236 105.554 107.8 105.431H106.938L102.138 117.615L105.646 126.292L100.046 128.569L98.6305 124.939C96.7433 127.195 94.3638 128.446 91.492 128.692ZM100.538 105.431H99.492V106.108C99.451 106.641 99.4715 107.195 99.5535 107.769L100.538 105.431ZM90.2612 107.831V120.262C90.2202 121.328 90.6305 122.128 91.492 122.662C93.092 122.128 94.2407 121.082 94.9382 119.523L95.7382 117.677C94.3843 113.903 93.6459 110.046 93.5228 106.108V105.431H92.6612C91.1843 105.554 90.3843 106.354 90.2612 107.831Z" fill="#004098"/>
<path d="M483.986 46.6923C484.888 43.5333 485.421 40.3128 485.585 37.0308V31.6154H478.878L478.324 46.2C478.242 48.2923 477.544 50.1795 476.232 51.8615C474.796 53.5026 472.97 54.3846 470.755 54.5077C468.539 54.3846 466.734 53.482 465.339 51.8C464.068 50.0769 463.432 48.1692 463.432 46.0769V34.0154C463.924 28.8461 466.734 26.0359 471.862 25.5846H473.093L473.585 12.3538C473.585 11.6974 473.38 11.1641 472.97 10.7538C472.519 10.2615 472.006 10.0359 471.432 10.0769H464.909V4.04614H471.432C473.729 4.04614 475.698 4.88717 477.339 6.56922C478.898 8.21024 479.657 10.2205 479.616 12.6L479.124 25.5846H485.585V8.84614H491.555V25.5846H495.678V31.6154H491.555V37.0308C491.432 40.9282 490.816 44.7641 489.709 48.5384L487.924 54.2L482.201 52.2923L483.986 46.6923ZM472.355 45.9538L472.909 31.6154H471.862C470.386 31.6974 469.585 32.4974 469.462 34.0154V46.0769C469.421 47.1436 469.852 47.9436 470.755 48.4769C471.821 47.9846 472.355 47.1436 472.355 45.9538Z" fill="#004098"/>
<path d="M423.492 40.9692L420.907 45.6461C418.569 42.282 417.153 40.0667 416.661 39C414.979 41.9949 412.989 44.5795 410.692 46.7538L408.6 41.5231V47.1846H423.492V40.9692ZM408.6 28.2308V40.5385C409.912 38.8154 411.287 36.682 412.723 34.1385C411.082 31.9231 409.707 29.9538 408.6 28.2308ZM412.23 18.5692L406.63 20.7846C405.4 14.3846 404.148 8.9282 402.877 4.41538L408.477 2.13845C409.994 7.79999 411.246 13.2769 412.23 18.5692ZM425.092 22.1385L419.553 19.3692C419.841 18.6718 420.107 17.9538 420.353 17.2154L414.877 19.1846C413.728 12.2102 412.579 6.61025 411.43 2.38461L416.969 0.538452C418.2 5.01025 419.348 10.5282 420.415 17.0923C421.892 12.7846 423.307 7.47179 424.661 1.15384L430.507 3.18461C428.784 11.1026 426.979 17.4205 425.092 22.1385ZM393.03 35.4923L388.6 34.3231C389.584 27.1026 390.323 19.8 390.815 12.4154L394.077 12.9692V0.969223H400.107V11.7385L402.753 10.7538C403.533 14.8564 404.189 18.8769 404.723 22.8154H408.6V27.3077L410.877 22.6923C412.846 24.5795 414.507 26.5077 415.861 28.4769C416.723 26.1385 417.584 23.5949 418.446 20.8461L423.369 23.9231C422.425 27.2051 421.277 30.3641 419.923 33.4C421.153 35.2872 422.343 37.4 423.492 39.7385V22.8154H429.523V56.4154H423.369V53.5846H408.661V56.4154H402.692V25.7077L400.784 26.3231C400.538 24.4769 400.312 21.6256 400.107 17.7692V56.7231H394.077V21.7692C394.077 26.241 393.728 30.8154 393.03 35.4923Z" fill="#004098"/>
<path d="M333.768 54.6922C331.512 54.6102 329.707 53.7076 328.353 51.9846C327.081 50.3025 326.445 48.3948 326.445 46.2615V33.8307C326.938 28.7025 329.748 25.8922 334.876 25.3999H335.061V14.2615H327.615V8.29225H335.061V3.7384H341.03V8.29225H348.907V14.2615H341.03V25.3999H346.753C351.84 25.8922 354.65 28.7025 355.184 33.8307V46.2615C355.143 50.9384 352.927 53.7487 348.538 54.6922H345.03V48.6615H348.353C348.886 47.923 349.153 47.123 349.153 46.2615V33.8307C348.989 32.3538 348.189 31.5538 346.753 31.4307H341.03V46.2615C341.03 48.3538 340.394 50.2615 339.122 51.9846C337.727 53.7076 335.943 54.6102 333.768 54.6922ZM332.476 33.8307V46.2615C332.435 47.3281 332.866 48.1281 333.768 48.6615C334.63 48.1692 335.061 47.3692 335.061 46.2615V31.4307H334.876C333.399 31.5538 332.599 32.3538 332.476 33.8307ZM359.861 24.1692L353.953 25.3999L351.43 13.1538L357.338 11.923L359.861 24.1692Z" fill="#004098"/>
<path d="M264.169 26.1384L259.676 39.9846L253.953 38.0769L258.445 24.2307C259.348 21.0718 259.881 17.8718 260.045 14.6307V14.3846H256.23V8.41534H260.045V3.67688H266.076V8.41534H272.845V14.3846H266.076V14.6307C265.912 18.5692 265.276 22.4051 264.169 26.1384ZM279.43 18.2615V12.2307H289.215V18.2615H279.43ZM286.938 38.1384C288.661 39.5333 289.563 41.3589 289.645 43.6153V48.0461H283.676V43.6153C283.389 42.7538 282.753 42.282 281.769 42.2V46.1384C281.276 51.2666 278.486 54.0769 273.399 54.5692H273.092C267.922 54.0769 265.112 51.2666 264.661 46.1384V44.6C265.112 39.4718 267.922 36.6615 273.092 36.1692H275.799V25.3384H281.769V36.1692C283.697 36.2923 285.42 36.9487 286.938 38.1384ZM275.799 46.1384V42.1384H273.092C271.574 42.2615 270.774 43.082 270.692 44.6V46.1384C270.774 47.6153 271.574 48.4153 273.092 48.5384H273.399C274.876 48.4153 275.676 47.6153 275.799 46.1384Z" fill="#004098"/>
<path d="M210.692 48.477L217.707 46.6308L219.307 52.3539L212.292 54.3231C211.553 54.4872 210.835 54.5898 210.138 54.6308C208.579 54.5898 207.184 54.118 205.953 53.2154C204.107 51.6565 203.204 49.7077 203.245 47.3693V33.8924C203.245 32.7026 202.753 31.9026 201.768 31.4924H197.522L192.045 54.7539L186.199 53.3385L198.015 3.30774L203.861 4.66159L198.938 25.4616H201.768C206.486 26.159 208.989 28.9693 209.276 33.8924V47.3693C209.194 47.7795 209.317 48.1283 209.645 48.4154C209.933 48.5795 210.281 48.6001 210.692 48.477Z" fill="#004098"/>
<path d="M137.954 23.1846L140.539 14.4461C140.662 14.0769 140.662 13.7487 140.539 13.4615C140.252 13.2153 139.924 13.1128 139.554 13.1538H123.985V7.12304H139.554C141.893 7.08202 143.821 7.98458 145.339 9.83073C146.652 11.7589 146.96 13.8718 146.262 16.1692L143.677 24.8461L137.954 23.1846ZM120.662 46.2615V36.2923H126.693V46.2615C126.816 47.7384 127.616 48.5384 129.093 48.6615H147.185V54.6923H129.093C123.965 54.2 121.154 51.3897 120.662 46.2615Z" fill="#004098"/>
</svg>
