<svg width="614" height="313" viewBox="0 0 614 313" fill="none" xmlns="http://www.w3.org/2000/svg">
<path d="M0 151.125V86.125H6V151.125C6 163.275 15.8497 173.125 28 173.125H398V179.125H28C12.536 179.125 0 166.589 0 151.125Z" fill="#004098"/>
<path d="M435.193 178.875L388.059 223.308L383.942 218.942L432.809 172.875H611V178.875H435.193Z" fill="#004098"/>
<path d="M447.422 93.5844V104.415H456.284V93.5844H447.422ZM432.407 104.415H441.268V93.5844H432.407V104.415ZM441.268 86.8152V75.9229H447.422V86.8152H462.622V132.723H456.284V129.277H432.407V132.723H426.068V86.8152H441.268ZM441.268 122.692V111H432.407V122.692H441.268ZM447.422 122.692H456.284V111H447.422V122.692Z" fill="#004098"/>
<path d="M373.269 90.1382H377.7V84.3536H373.269V90.1382ZM367.485 87.3075H364.961V97.8921H367.485V87.3075ZM377.7 101.646V95.6152H373.269V101.646H377.7ZM383.915 101.646H388.223V95.6152H383.915V101.646ZM364.961 117.031C365.864 116.538 366.664 116.087 367.361 115.677V112.846H377.7V107.738H367.485V104.846H364.961V117.031ZM358.869 119.184V104.846H355.546V97.8921H358.869V87.3075H355.115V80.1075H367.485V77.9536H394.131V107.738H383.915V112.846H394.685V119H383.915V124.538H395.238V131.123H365.269V124.538H377.7V119H368.777L368.961 122.138C365.187 124.066 360.695 125.831 355.485 127.431L354.869 120.477C356.469 120.025 357.802 119.595 358.869 119.184ZM383.915 90.1382H388.223V84.3536H383.915V90.1382Z" fill="#004098"/>
<path d="M312.409 121.277C313.762 118.528 314.521 115.657 314.685 112.662V90.9386C314.562 89.4617 313.762 88.6617 312.285 88.5386H309.578V103.123C309.455 107.021 308.86 110.857 307.793 114.631L304.962 123.308C304.388 124.949 303.568 126.508 302.501 127.985C301.311 129.544 299.732 130.405 297.762 130.569C295.588 130.364 294.091 129.257 293.27 127.246C292.532 125.605 292.183 123.903 292.224 122.139V90.9386C292.675 85.7694 295.465 82.9591 300.593 82.5078H312.285C317.414 83.0001 320.203 85.8104 320.655 90.9386V112.662C320.45 116.764 319.444 120.621 317.639 124.231L314.07 130.631L308.839 127.616L312.409 121.277ZM303.547 103.123V88.5386H300.593C299.116 88.6617 298.316 89.4617 298.193 90.9386V122.139C298.193 122.59 298.234 123 298.316 123.369C298.685 122.754 298.993 122.118 299.239 121.462L302.009 112.785C302.911 109.626 303.424 106.405 303.547 103.123Z" fill="#004098"/>
<path d="M253.577 111.8C253.495 113.974 252.962 116.025 251.977 117.954C251.074 119.882 249.803 121.543 248.162 122.938L240.469 128.846L236.777 124.169L244.408 118.138C246.254 116.415 247.3 114.302 247.546 111.8V94.3229C247.423 92.8459 246.623 92.0459 245.146 91.9229H222.5V85.8921H245.146C250.274 86.3844 253.085 89.1947 253.577 94.3229V111.8Z" fill="#FF6F3D"/>
<path d="M157.638 82.0771H179.115V89.031L169.515 100.477V100.6H170.253C173.125 100.6 175.381 101.687 177.022 103.862C178.704 105.995 179.545 108.99 179.545 112.846C179.545 117.564 178.458 121.216 176.284 123.8C174.11 126.344 171.094 127.616 167.238 127.616C163.669 127.616 160.366 126.528 157.33 124.354L159.115 117.585C162.151 119.677 164.776 120.703 166.992 120.662C168.92 120.662 170.376 120.005 171.361 118.693C172.386 117.339 172.899 115.431 172.899 112.969C172.899 110.631 172.345 108.969 171.238 107.985C170.171 107 168.222 106.508 165.392 106.508H161.761V100.354L170.93 89.1541V89.031H157.638V82.0771Z" fill="#FF6F3D"/>
<path d="M414.684 27.5847C419.812 28.077 422.623 30.8873 423.115 36.0155V48.2001C422.623 53.3283 419.812 56.1385 414.684 56.6309H404.9C399.771 56.1385 396.961 53.3283 396.469 48.2001V46.9693C396.961 41.8411 399.771 39.0514 404.9 38.6001H405.576C410.664 39.0924 413.453 41.8821 413.946 46.9693V50.6001H414.684C416.161 50.477 416.961 49.677 417.084 48.2001V36.0155C416.961 34.5385 416.161 33.7385 414.684 33.6155H406.869C404.366 33.6975 402.5 32.7129 401.269 30.6616C400.407 28.4052 400.756 26.3334 402.315 24.4462L411.853 12.6924H397.392V6.66162H412.469C414.889 6.53855 416.735 7.52316 418.007 9.61547C418.869 11.8309 418.541 13.9026 417.023 15.8309L407.484 27.5847H414.684ZM407.976 50.6001V46.9693C407.812 45.4924 407.012 44.6924 405.576 44.5693H404.9C403.423 44.6924 402.623 45.4924 402.5 46.9693V48.2001C402.623 49.677 403.423 50.477 404.9 50.6001H407.976Z" fill="#004098"/>
<path d="M351.73 47.0306L355.422 41.9229L360.284 45.4921L354.314 53.7383C353.289 55.3383 351.832 56.2614 349.945 56.5075C349.535 56.4665 349.125 56.405 348.714 56.3229C346.54 55.2562 345.535 53.4511 345.699 50.9075V22.6614C345.74 21.8408 345.555 21.0819 345.145 20.3844C344.694 20.5485 344.345 20.7742 344.099 21.0614C343.237 21.7178 342.581 22.5178 342.13 23.4614L335.607 34.4767V56.3844H329.576V44.6921L327.607 48.0767L322.438 45.0614L329.576 32.8152V16.3844H324.222V10.4152H329.576V5.73828H335.607V10.4152H339.484V16.3844H335.607V22.5998L336.899 20.3844C338.827 16.9383 341.679 14.887 345.453 14.2306C347.586 14.3537 349.207 15.3793 350.314 17.3075C351.217 18.9485 351.689 20.7332 351.73 22.6614V47.0306Z" fill="#004098"/>
<path d="M258.008 55.8308L256.716 50.9078C255.814 47.2565 255.342 43.5437 255.301 39.7693V5.86161H261.27V39.7693C261.311 42.9693 261.721 46.1488 262.501 49.3078L263.793 54.2924L258.008 55.8308ZM284.655 17.4924V36.6308H289.516V42.6616H284.655V48.077C284.285 53.0411 281.66 55.8514 276.778 56.5078C271.855 55.8924 269.229 53.0821 268.901 48.077V45.0616C269.393 39.9334 272.203 37.1232 277.332 36.6308H278.624V17.4924H268.347V11.4616H278.624V6.90777H284.655V11.4616H288.901V17.4924H284.655ZM278.624 48.077V42.6616H277.332C275.855 42.7847 275.055 43.5847 274.932 45.0616V48.077C274.932 49.3898 275.547 50.1898 276.778 50.477C277.967 50.1488 278.583 49.3488 278.624 48.077ZM281.578 5.73854V0.692383H286.624V5.73854H281.578ZM289.147 5.73854V0.692383H294.193V5.73854H289.147Z" fill="#004098"/>
<path d="M216.284 51.2767C214.191 49.1844 211.791 47.3998 209.084 45.9228L210.253 42.6613H205.576L206.868 45.5536C205.35 47.2357 203.463 48.9587 201.207 50.7228C202.93 51.0921 205.904 51.2767 210.13 51.2767H216.284ZM182.868 25.7382H193.145V45.2459C193.556 46.2305 193.843 46.9075 194.007 47.2767C196.468 46.0459 198.663 44.5075 200.591 42.6613H194.068V36.3844H199.73V33.1228H195.238V27.2767H199.73V25.1228C199.361 25.1228 198.663 25.0818 197.638 24.9998C196.161 24.9177 195.197 24.61 194.745 24.0767C194.294 23.5434 194.068 22.4357 194.068 20.7536V15.8305L190.991 20.3228C188.489 16.6305 185.884 12.8767 183.176 9.06131L187.299 4.26131C189.843 7.74849 192.099 11.3587 194.068 15.0921V12.2613H201.699V9.86131H193.761V3.95361H207.053V16.8152H199.114V18.7844C199.114 19.3177 199.135 19.6459 199.176 19.769C199.258 19.8921 199.402 19.9741 199.607 20.0152C199.73 20.0152 199.894 20.0357 200.099 20.0767C200.345 20.0767 200.53 20.0767 200.653 20.0767C200.776 20.0767 200.961 20.0767 201.207 20.0767C201.453 20.0357 201.638 20.0152 201.761 20.0152C202.13 19.9741 202.335 19.8305 202.376 19.5844C202.417 19.3382 202.458 18.4767 202.499 16.9998L207.914 18.2305C207.668 20.8152 207.422 22.4972 207.176 23.2767C206.971 24.0562 206.479 24.5485 205.699 24.7536V27.2767H210.93V24.9382C209.986 24.7741 209.309 24.4254 208.899 23.8921C208.53 23.3587 208.345 22.3126 208.345 20.7536V12.2613H215.976V9.86131H208.222V3.95361H221.453V16.8152H213.453V18.7844C213.453 19.3177 213.453 19.6459 213.453 19.769C213.494 19.8921 213.658 19.9741 213.945 20.0152C214.027 20.0152 214.191 20.0357 214.438 20.0767C214.684 20.0767 214.868 20.0767 214.991 20.0767C215.114 20.0767 215.279 20.0767 215.484 20.0767C215.73 20.0357 215.935 20.0152 216.099 20.0152C216.468 19.9741 216.673 19.8511 216.714 19.6459C216.797 19.3998 216.858 18.5177 216.899 16.9998L222.314 18.2305C222.068 21.3485 221.72 23.2357 221.268 23.8921C220.817 24.5075 219.648 24.8767 217.761 24.9998C217.597 24.9998 217.391 25.0203 217.145 25.0613C216.94 25.1023 216.879 25.1228 216.961 25.1228V27.2767H221.453V33.1228H216.961V36.3844H222.438V42.6613H216.468C218.15 44.0562 220.12 45.6972 222.376 47.5844L220.961 51.2767H222.93L222.684 57.9229H210.13C204.55 57.9229 200.304 57.5126 197.391 56.6921C194.479 55.8716 192.345 54.4357 190.991 52.3844C189.473 54.6408 187.463 56.8152 184.961 58.9075L182.191 52.4459C184.202 50.6408 185.72 48.9382 186.745 47.3382H187.053V32.5075H182.868V25.7382ZM205.699 36.3844H210.93V33.1228H205.699V36.3844Z" fill="#004098"/>
</svg>
